<?xml version="1.0" standalone="no"?>
<!DOCTYPE svg PUBLIC "-//W3C//DTD SVG 20010904//EN"
 "http://www.w3.org/TR/2001/REC-SVG-20010904/DTD/svg10.dtd">
<svg version="1.0" xmlns="http://www.w3.org/2000/svg"
 width="512.000000pt" height="512.000000pt" viewBox="0 0 512.000000 512.000000"
 preserveAspectRatio="xMidYMid meet">

<g transform="translate(0.000000,512.000000) scale(0.100000,-0.100000)"
fill="#000000" stroke="none">
<path d="M3140 4543 c-61 -22 -142 -104 -163 -167 -14 -42 -17 -94 -17 -333
l0 -283 -1323 0 c-1503 0 -1381 7 -1473 -84 -90 -91 -84 0 -84 -1236 0 -1236
-6 -1145 84 -1236 87 -86 67 -84 698 -84 301 0 548 -3 548 -7 0 -5 -7 -41 -17
-80 l-17 -73 -103 0 c-97 0 -106 -2 -128 -25 -24 -23 -25 -28 -25 -175 0 -147
1 -152 25 -175 l24 -25 751 0 751 0 24 25 c24 23 25 28 25 175 0 147 -1 152
-25 175 -22 23 -31 25 -128 25 l-103 0 -17 73 c-10 39 -17 75 -17 80 0 4 119
7 265 7 l265 0 0 -163 c0 -200 10 -239 84 -313 89 -89 35 -84 956 -84 921 0
867 -5 956 84 92 93 84 -87 84 1916 0 2003 8 1823 -84 1916 -90 89 -34 84
-960 83 -712 0 -816 -3 -856 -16z m1420 -463 l0 -80 -560 0 -560 0 0 80 0 80
560 0 560 0 0 -80z m-998 -518 l33 -32 0 -1090 0 -1090 -33 -32 -32 -33 -1610
0 -1610 0 -32 33 -33 32 0 1089 0 1089 25 27 c14 15 34 31 45 36 11 4 739 7
1617 6 l1598 -2 32 -33z m472 -2373 c88 -40 26 -176 -63 -139 -58 23 -64 110
-10 137 30 16 42 16 73 2z m-1474 -429 l0 -40 -640 0 -640 0 0 40 0 40 640 0
640 0 0 -40z"/>
<path d="M345 3495 l-25 -24 0 -1031 0 -1031 25 -24 24 -25 1551 0 1551 0 24
25 25 24 0 1031 0 1031 -25 24 -24 25 -1551 0 -1551 0 -24 -25z m3015 -1055
l0 -920 -1440 0 -1440 0 0 920 0 920 1440 0 1440 0 0 -920z"/>
</g>
</svg>
